Coordinates
version=1
nRows=29
nColumns=24
inDegrees=yes

Units are S.I. units (second, meters, Newtons, ...)
Angles are in degrees.

endheader
time	pelvis_tilt	pelvis_list	pelvis_rotation	pelvis_tx	pelvis_ty	pelvis_tz	hip_flexion_r	hip_adduction_r	hip_rotation_r	knee_angle_r	ankle_angle_r	subtalar_angle_r	mtp_angle_r	hip_flexion_l	hip_adduction_l	hip_rotation_l	knee_angle_l	ankle_angle_l	subtalar_angle_l	mtp_angle_l	lumbar_extension	lumbar_bending	lumbar_rotation
      1.35783333	     -1.32451797	      0.49677402	     -5.92478441	      0.85933703	      0.96076494	      0.30727752	    -20.97414379	     -0.47515117	     -0.16708344	     -5.96604140	     18.77627581	      2.35577987	      6.02196059	     27.00425988	     -1.76700167	     -1.99366743	      7.95586731	      1.64483696	     -4.64874063	      0.65443462	    -13.12503600	      4.40525304	     10.59049566
      1.36200000	     -1.38855491	      0.57197889	     -6.00471017	      0.86530884	      0.95992389	      0.30704728	    -21.06691107	     -0.63638268	     -0.23255616	     -6.34378638	     18.66214729	      2.43091987	      6.09228174	     27.23934377	     -1.73112955	     -1.69545658	      7.17981409	      1.73697802	     -4.98815613	      0.66365427	    -13.03591924	      4.26890563	     10.64439913
      1.36616667	     -1.37483702	      0.69189500	     -6.08526154	      0.87138486	      0.95920471	      0.30681539	    -21.26275843	     -0.85244640	     -0.31982026	     -6.67607807	     18.47622660	      2.50481735	      6.16082717	     27.36268277	     -1.63863169	     -1.39556883	      6.42440297	      1.77924612	     -5.36631578	      0.67474245	    -13.03612983	      4.05195619	     10.65297530
      1.37033333	     -1.36732274	      0.80492515	     -6.17177558	      0.87749794	      0.95848984	      0.30654466	    -21.42221952	     -1.06977320	     -0.46873036	     -7.07168715	     18.31800389	      2.67871297	      6.36100026	     27.46543754	     -1.54598189	     -1.03061454	      5.70102106	      1.61102542	     -6.04739881	      0.69835649	    -13.01631013	      3.87567215	     10.67652860
      1.37450000	     -1.34946028	      0.94216108	     -6.26240986	      0.88369234	      0.95782933	      0.30631803	    -21.61386576	     -1.30557784	     -0.55003620	     -7.41813158	     18.05877252	      2.66630503	      6.43377237	     27.57976872	     -1.42740685	     -0.83591918	      4.89261035	      1.58591330	     -6.39467319	      0.70966977	    -12.98661715	      3.63551397	     10.67262610
      1.37866667	     -1.38035775	      1.08064123	     -6.34380046	      0.88992605	      0.95710746	      0.30600392	    -21.72878889	     -1.54376601	     -0.69153174	     -7.81798658	     17.84803386	      2.80908990	      6.73143103	     27.70410233	     -1.29604932	     -0.43130599	      4.16499720	      1.23672669	     -7.23595670	      0.75361767	    -12.92555691	      3.44131725	     10.72186803
      1.38283333	     -1.36810782	      1.24107842	     -6.43916221	      0.89623465	      0.95648543	      0.30574315	    -21.90129439	     -1.80757419	     -0.79494616	     -8.17581877	     17.44704916	      2.71011304	     11.43322942	     27.78014332	     -1.14186785	     -0.18646645	      3.42076631	      0.93003134	     -7.86260362	      1.57545123	    -12.89046995	      3.19933695	     10.68727683
      1.38700000	     -1.39890422	      1.40867065	     -6.53535870	      0.90258570	      0.95583167	      0.30544979	    -22.00531085	     -2.07748133	     -0.91953034	     -8.58731904	     17.14744153	      2.74737433	     11.49814898	     27.91370111	     -0.97726661	      0.02553763	      2.64298449	      0.55386078	     -8.48498930	      1.57035442	    -12.80168431	      2.94091717	     10.76143924
      1.39116667	     -1.42595951	      1.59235663	     -6.63607994	      0.90898792	      0.95521554	      0.30515031	    -22.10195112	     -2.36486723	     -1.03948593	     -9.01793139	     16.80588917	      2.73876754	     11.63365727	     28.02281944	     -0.79140225	      0.23487750	      1.89884340	      0.08384086	     -9.19013236	      1.56910652	    -12.70820590	      2.67836224	     10.78133714
      1.39533333	     -1.46163543	      1.78449393	     -6.73993701	      0.91543973	      0.95461733	      0.30484986	    -22.18395935	     -2.66030865	     -1.15076910	     -9.45324682	     16.43154152	      2.69848800	     11.83448771	     28.14387220	     -0.59483030	      0.39185231	      1.15256568	     -0.47401525	     -9.88883913	      1.58421202	    -12.59689771	      2.39932974	     10.81879052
      1.39950000	     -1.50629590	      1.99617123	     -6.84691078	      0.92193333	      0.95404882	      0.30453179	    -22.23584860	     -2.97680292	     -1.27386264	     -9.92278231	     16.02293563	      2.64194321	     12.11949514	     28.26305649	     -0.37439430	      0.53113090	      0.42678012	     -1.11516669	    -10.63597180	      1.61569319	    -12.47439989	      2.10422520	     10.85169552
      1.40366667	     -1.55999267	      2.21975312	     -6.95393409	      0.92848323	      0.95350354	      0.30421612	    -22.27162183	     -3.30229616	     -1.38921093	    -10.39956593	     15.57926928	      2.54538059	     12.46031660	     28.39366273	     -0.14047570	      0.60199636	     -0.29372308	     -1.82150907	    -11.32585057	      1.65384043	    -12.32936363	      1.79371551	     10.88849969
      1.40783333	     -1.62698272	      2.45493082	     -7.06316645	      0.93506002	      0.95298158	      0.30388542	    -22.27092331	     -3.63959695	     -1.50233714	    -10.91178698	     15.09536453	      2.42423954	     12.89534043	     28.54157178	      0.10605828	      0.65720559	     -1.01835190	     -2.59564438	    -12.03608007	      1.70560269	    -12.16510884	      1.47414136	     10.92913404
      1.41200000	     -1.66864439	      2.71977782	     -7.15288301	      0.94169417	      0.95251870	      0.30351827	    -22.28879288	     -4.00675201	     -1.68606329	    -11.42543392	     14.46777743	      2.23212939	     19.04006496	     28.66777765	      0.39644277	      0.65326617	     -1.74505462	     -3.35774736	    -12.64200941	      2.58861557	    -12.02896393	      1.12591376	     10.88325798
      1.41616667	     -1.75284906	      2.97398602	     -7.27139422	      0.94834114	      0.95207027	      0.30319791	    -22.24336221	     -4.35907275	     -1.75247641	    -11.96905743	     13.89381226	      2.00986882	     19.11181722	     28.84684507	      0.65692346	      0.57796075	     -2.48708989	     -4.21642794	    -13.21013250	      2.57381878	    -11.83558144	      0.77653376	     10.98490168
      1.42033333	     -1.83237642	      3.24885904	     -7.36760564	      0.95501638	      0.95165579	      0.30281379	    -22.18158801	     -4.73014240	     -1.87579443	    -12.55107421	     13.26515349	      1.81925069	     19.30366486	     29.00983713	      0.95613966	      0.57434361	     -3.19741909	     -5.09560880	    -13.87121151	      2.57207784	    -11.64902221	      0.41580680	     11.02016503
      1.42450000	     -1.92446344	      3.53662873	     -7.46820869	      0.96170712	      0.95127114	      0.30244946	    -22.08617491	     -5.10909875	     -1.96423303	    -13.16482648	     12.65914456	      1.56260188	     19.52676624	     29.20664808	      1.25986306	      0.45787624	     -3.94464787	     -6.00208274	    -14.41162299	      2.57352806	    -11.44376905	      0.04425105	     11.05352386
      1.42866667	     -2.01333880	      3.83620964	     -7.55483118	      0.96842146	      0.95093161	      0.30204440	    -21.97405951	     -5.49716926	     -2.07616025	    -13.80888397	     11.97330122	      1.29371007	     19.84129698	     29.40290698	      1.58634649	      0.36918935	     -4.70002233	     -6.87730678	    -14.96585331	      2.58618036	    -11.23257650	     -0.34033335	     11.08822623
      1.43283333	     -2.10349348	      4.14427679	     -7.63496125	      0.97515634	      0.95063305	      0.30161241	    -21.84253268	     -5.89141753	     -2.17963346	    -14.47962283	     11.24517113	      0.98752357	     20.25656244	     29.60749418	      1.92531378	      0.27939274	     -5.46895220	     -7.72977647	    -15.47976550	      2.59833649	    -11.02130434	     -0.73317086	     11.12277120
      1.43700000	     -2.16132969	      4.47912257	     -7.68854318	      0.98194787	      0.95039426	      0.30111622	    -21.73613285	     -6.31772733	     -2.37942183	    -15.15385734	     10.39999823	      0.69393171	     26.29643743	     29.79865896	      2.30909446	      0.16665880	     -6.28608518	     -8.44837037	    -15.89805344	      2.97090460	    -10.83534245	     -1.15113792	     11.07898983
      1.44116667	     -2.23730892	      4.79818701	     -7.75937357	      0.98870360	      0.95020552	      0.30067149	    -21.58575484	     -6.71565878	     -2.44348203	    -15.86907648	      9.57344520	      0.28703210	     26.35369091	     30.01714034	      2.66076720	      0.00196090	     -7.12504369	     -9.14642856	    -16.23196573	      2.94928732	    -10.64157944	     -1.55887175	     11.13638711
      1.44533333	     -2.31384282	      5.12794140	     -7.81224766	      0.99548318	      0.95004093	      0.30016426	    -21.41429301	     -7.12340440	     -2.53978185	    -16.61985489	      8.71412621	     -0.08845673	     26.49618624	     30.24737651	      3.03853615	     -0.11207147	     -7.99643245	     -9.77439459	    -16.64335870	      2.92307608	    -10.44186461	     -1.97120793	     11.16664798
      1.44950000	     -2.36910903	      5.47280248	     -7.85756578	      1.00226882	      0.94994059	      0.29963545	    -21.23702063	     -7.54927337	     -2.65778455	    -17.41914616	      7.83051574	     -0.46944686	     26.65786420	     30.46349703	      3.43563740	     -0.25141252	     -8.89323440	    -10.29905384	    -16.92661998	      2.89308732	    -10.26107531	     -2.39835539	     11.17185922
      1.45366667	     -2.34873892	      5.83743168	     -7.88370428	      1.00910094	      0.94997747	      0.29904148	    -21.15016876	     -8.00135245	     -2.81318067	    -18.18262571	      6.82682595	     -0.88347889	     30.01001725	     30.58791439	      3.88885081	     -0.30179204	     -9.77298482	    -10.78677080	    -17.41181410	      2.36570164	    -10.17534813	     -2.86652299	     11.19250670
      1.45783333	     -2.40406592	      6.18690948	     -7.88934650	      1.01589395	      0.94991634	      0.29841935	    -20.93695882	     -8.42380394	     -2.95265415	    -19.04578405	      5.88857047	     -1.24011739	     30.04277907	     30.84976026	      4.31179641	     -0.42458897	    -10.79374777	    -11.00038400	    -17.54355486	      2.35179607	     -9.99799326	     -3.29078867	     11.14238267
      1.46200000	     -2.47437854	      6.49770736	     -7.90765119	      1.02266284	      0.94989501	      0.29780791	    -20.68171234	     -8.80116418	     -2.99938535	    -19.93912359	      4.88232584	     -1.75226211	     30.18959927	     31.12064735	      4.69351872	     -0.51652109	    -11.81710527	    -11.21366178	    -17.80501751	      2.30009471	     -9.80333730	     -3.66160934	     11.19481161
      1.46616667	     -2.44973284	      6.85652871	     -7.89790352	      1.02947167	      0.94999822	      0.29711454	    -20.52074572	     -9.24413763	     -3.16647304	    -20.84942292	      3.86188662	     -2.10593149	     30.25798652	     31.28983241	      5.15981676	     -0.57334869	    -12.83997248	    -11.27047953	    -17.99946348	      2.27100098	     -9.72277171	     -4.10220880	     11.14959848
      1.47033333	     -2.44937395	      7.16029819	     -7.89326428	      1.03622734	      0.95012900	      0.29645380	    -20.31308906	     -9.61582647	     -3.22364596	    -21.77032362	      2.70685109	     -2.70370031	     33.15277478	     31.49892235	      5.55898168	     -0.66812163	    -13.92650596	    -11.16327413	    -18.04131716	      1.04258481	     -9.62452824	     -4.47626962	     11.21236827
      1.47450000	     -2.42129642	      7.51458713	     -7.85796113	      1.04300730	      0.95028225	      0.29567414	    -20.10197455	    -10.05459924	     -3.40065383	    -22.77461827	      1.65871073	     -3.08950642	     33.18806959	     31.64833498	      6.05298752	     -0.61542135	    -14.93109323	    -11.14788152	    -18.36668268	      1.01904444	     -9.54784975	     -4.89338185	     11.16170114
